<svg xmlns="http://www.w3.org/2000/svg" xmlns:xlink="http://www.w3.org/1999/xlink" version="1.1" id="Layer_1" x="0px" y="0px" width="180px" height="39px" viewBox="0 0 180 39" style="enable-background:new 0 0 180 39;" xml:space="preserve">
<style type="text/css">
	.st0{fill:#ffffff;}
</style>
<g id="Layer_3">
	<g>
		<g>
			<path class="st0" d="M49.3,21.7L49.3,21.7c0,0.5,0.6,1.1,1.9,1.1c1.1,0,1.4-0.4,1.4-0.7c0-0.5-0.6-0.8-1.9-1.2     c-1.8-0.6-4.1-1.4-4.1-3.7c0-2.1,1.8-3.5,4.3-3.5c2.6,0,4.5,1.4,4.5,3.6v0.2h-2.7v-0.1c0-0.5-0.6-1.2-1.7-1.2     c-1,0-1.3,0.4-1.3,0.8c0,0.5,0.5,0.7,1.9,1.1c1.5,0.5,4.1,1.4,4.1,3.9c0,2.2-1.9,3.3-4.4,3.3c-2.6,0-4.7-1.2-4.7-3.4v-0.1     L49.3,21.7L49.3,21.7z"/>
			<path class="st0" d="M60.2,14H63v3.8l3.5-3.8h3.7l-4.4,4.8l4.6,6.3h-3.5l-3-4.2l-0.8,0.8V25h-2.8L60.2,14L60.2,14z"/>
			<path class="st0" d="M79.4,18l2.5-4h3.4l-4.4,7v4.1H78V21l-4.4-7H77L79.4,18z"/>
			<path class="st0" d="M95.9,14h2.8v8.4h5.3v2.7h-8.2L95.9,14L95.9,14z"/>
			<path class="st0" d="M115.5,14l4.5,11.1h-3.1l-0.6-1.6h-4.4l-0.6,1.6h-3.1l4.5-11.1H115.5z M114.1,17.6l-1.2,3.3h2.4L114.1,17.6z     "/>
			<path class="st0" d="M128.5,18.6h5.4V25h-2.2v-1c-0.5,0.8-1.7,1.2-2.8,1.2c-3.2,0-5.9-2.6-5.9-5.7c0-3.2,2.7-5.7,5.9-5.7     c1.9,0,3.6,0.9,4.7,2.3l-2.3,1.5c-0.6-0.7-1.4-1.1-2.4-1.1c-1.7,0-3,1.3-3,3s1.3,3,3,3c1,0,1.9-0.5,2.4-1.2V21h-2.7L128.5,18.6     L128.5,18.6z"/>
			<path class="st0" d="M144.2,13.8c3.3,0,5.9,2.6,5.9,5.7s-2.6,5.7-5.9,5.7c-3.2,0-5.9-2.6-5.9-5.7S141,13.8,144.2,13.8z      M144.2,22.5c1.7,0,3-1.3,3-3s-1.3-3-3-3s-3,1.3-3,3S142.6,22.5,144.2,22.5z"/>
			<path class="st0" d="M159.5,13.8c3.3,0,5.9,2.6,5.9,5.7s-2.6,5.7-5.9,5.7c-3.2,0-5.9-2.6-5.9-5.7S156.3,13.8,159.5,13.8z      M159.5,22.5c1.7,0,3-1.3,3-3s-1.3-3-3-3s-3,1.3-3,3S157.8,22.5,159.5,22.5z"/>
			<path class="st0" d="M169.6,25.1V14h2.4l5,6.2V14h2.8v11.1h-2.4l-5-6.2v6.2C172.4,25.1,169.6,25.1,169.6,25.1z"/>
		</g>
		<g>
			<path class="st0" d="M26.5,25.9c0.7,0,1.7-1,1.7-1.6c0-0.1,0-0.1,0-0.2c-0.2-0.2-1.2-0.4-1.5-0.3c-0.4,0.3-0.8,1.2-0.7,1.6     C26.1,25.7,26.4,25.9,26.5,25.9z"/>
			<path class="st0" d="M36.3,15.9c-0.6,0.4-0.5,0.9-0.4,1.5c0.1,0.4,0.4,0.3,0.6,0.4c0.2,0,0.4-0.1,0.4-0.3c0-0.4,0.2-0.9,0.1-1.3     C36.9,15.8,36.7,15.7,36.3,15.9z"/>
			<path class="st0" d="M34.5,25.8c0.5-0.4,0.8-0.9,0.9-1.4c0-0.3,0-0.6-0.3-0.8c-0.3-0.2-0.5,0-0.7,0.2c-0.6,0.3-0.9,1.3-0.6,1.8     C34,25.8,34.2,26.1,34.5,25.8z"/>
			<path class="st0" d="M33.7,14.1c0.1,0.3,0.5,0.3,0.7,0.4c0.1,0,0.2,0,0.2-0.1c0-0.6,0.3-1.1,0.2-1.7c0-0.2-0.1-0.4-0.4-0.4     c-0.2,0.1-0.6,0-0.6,0.4c0,0.3-0.1,0.6-0.1,0.9C33.6,13.8,33.6,13.9,33.7,14.1z"/>
			<path class="st0" d="M28.6,29.9c0.5-0.3,1-0.6,1.2-1.2s-0.1-1.1-0.7-1.2c0,0-0.1,0-0.2,0c-0.4,0.5-0.9,1-1.3,1.5     c-0.2,0.3,0.2,0.5,0.4,0.8C28.2,30.1,28.4,30,28.6,29.9z"/>
			<path class="st0" d="M32.6,12.5c0.3,0,0.2-0.2,0.2-0.4c0.1-0.2,0.1-0.5,0.1-0.7s0-0.4-0.3-0.4c-0.2,0-0.4,0-0.4,0.3     c0,0.2-0.1,0.5-0.1,0.7C32.1,12.1,32.4,12.5,32.6,12.5z"/>
			<path class="st0" d="M33.2,7.5c0.4-0.3,0.4-0.7,0.5-1.1c0-0.3-0.1-0.7-0.2-0.9c-0.2-0.4-0.5-0.4-0.8-0.1c0,0-0.1,0.1-0.1,0.2     c-0.1,0.6-0.2,1.2,0,1.8C32.6,7.7,32.8,7.7,33.2,7.5z"/>
			<path class="st0" d="M30,23.7c0.3,0,0.5-0.2,0.7-0.7c0.1-0.2,0.2-0.3,0-0.5c-0.1-0.2-0.3-0.2-0.6-0.2c-0.4,0.1-0.5,0.3-0.7,0.6     c-0.1,0.1-0.2,0.2-0.1,0.4C29.6,23.5,29.7,23.8,30,23.7z"/>
			<path class="st0" d="M36.2,12.5c0.1-0.1,0.1-0.2,0.1-0.3c-0.1-0.3-0.2-0.6-0.3-0.9c-0.1-0.2-0.2-0.3-0.4-0.3     c-0.1,0-0.3,0-0.3,0.2c0,0.3,0,0.5,0,0.8C35.4,12.4,36,12.6,36.2,12.5z"/>
			<path class="st0" d="M33.8,23.6c0.3-0.3,0.5-0.7,0.5-1.1c-0.1-0.6-0.4-0.8-0.7-0.7c-0.5,0.2-0.9,0.7-0.9,1.3     c0,0.3,0.1,0.5,0.4,0.6C33.3,23.8,33.6,23.8,33.8,23.6z"/>
			<path class="st0" d="M30.9,16.9c0.3,0.1,0.4-0.1,0.5-0.3c0.1-0.1,0.1-0.3,0.2-0.4c0.1-0.2,0.2-0.4,0.3-0.6c0-0.2-0.2-0.3-0.3-0.4     c-0.1,0-0.4,0-0.5,0.2c-0.1,0.3-0.3,0.6-0.4,0.9C30.5,16.6,30.7,16.8,30.9,16.9z"/>
			<path class="st0" d="M30.3,27.7c0.4,0,0.8-0.4,0.8-0.6c0-0.3-0.3-0.5-0.6-0.5c-0.2,0-0.5,0.4-0.5,0.7     C30,27.5,30.1,27.7,30.3,27.7z"/>
			<path class="st0" d="M35.8,25.3c-0.2,0.1-0.6,0.9-0.5,1.1c0.1,0.3,0.3,0.3,0.6,0.2c0.3-0.1,0.6-0.7,0.4-1.1     C36.3,25.3,36.1,25.2,35.8,25.3z"/>
			<path class="st0" d="M25.9,29.2c0.5-0.1,1-0.4,1.3-0.9c0.1-0.2,0.2-0.5,0.2-0.8s-0.5-0.6-0.9-0.4c-0.5,0.2-1,0.4-1.3,0.8     c-0.2,0.2-0.3,0.4-0.2,0.6C25.2,28.9,25.4,29.3,25.9,29.2z"/>
			<path class="st0" d="M24.4,27.1c-0.6,0-1.1,0-1.6,0.4c-0.4,0.3-0.4,0.6-0.2,0.9c0.3,0.3,0.6,0.3,0.9,0c0.6-0.2,0.7-0.7,1-1     C24.6,27.3,24.6,27.1,24.4,27.1z"/>
			<path class="st0" d="M33.1,30.8c-0.1-0.1-0.2-0.1-0.3,0c-0.3,0.3-0.6,0.6-0.8,1.1c-0.2,0.3-0.2,0.6,0.1,0.8     c0.4,0.2,0.6,0.1,0.8-0.2s0.3-0.6,0.6-0.8c0.1-0.1,0.1-0.2,0.1-0.3C33.5,31,33.3,30.9,33.1,30.8z"/>
			<path class="st0" d="M29.8,31.1c0.1-0.4-0.1-0.8-0.5-0.8S28,31,27.9,31.4s0.4,1,0.7,0.9C29.1,32.1,29.6,31.7,29.8,31.1z"/>
			<path class="st0" d="M31.2,30.6c-0.3,0-1,0.5-1,0.8c0,0.2,0.4,0.6,0.7,0.6c0.3,0,0.9-0.6,0.9-0.9C31.7,30.8,31.5,30.6,31.2,30.6z     "/>
			<path class="st0" d="M28.4,23c0.4-0.4,0.8-0.9,1.3-1.1c0.3-0.1,0.4-0.4,0.4-0.7c0-0.3-0.2-0.4-0.5-0.4c-0.4,0.1-0.9,0.2-1.2,0.6     c-0.3,0.4-0.5,0.8-0.7,1.3c-0.1,0.2-0.1,0.4,0.1,0.5C28.1,23.3,28.2,23.2,28.4,23z"/>
			<path class="st0" d="M29.4,24.9c-0.2-0.1-0.3-0.1-0.4,0c-0.5,0.3-0.8,0.7-1,1.3c-0.1,0.2-0.2,0.4,0,0.5s0.4,0.2,0.6,0     c0.5-0.4,0.9-0.8,0.9-1.4C29.6,25.1,29.5,25,29.4,24.9z"/>
			<path class="st0" d="M32.7,18.1c0.3,0.1,0.4-0.2,0.5-0.4c0.1-0.2,0.3-0.4,0.3-0.7c0.1-0.4-0.1-0.7-0.1-1.1c0-0.2-0.3-0.2-0.4-0.1     c-0.3,0.4-0.7,0.7-0.6,1.3c0,0.1,0,0.3,0,0.4C32.3,17.8,32.4,18,32.7,18.1z"/>
			<path class="st0" d="M31.8,19.7c-0.2,0.4-0.6,0.7-0.6,1.2c0,0.2-0.3,0.4-0.1,0.6c0.2,0.2,0.5,0.4,0.8,0.3     c0.2-0.1,0.5-0.1,0.6-0.4c0.1-0.4,0.3-0.9,0.4-1.3c0.1-0.3,0-0.6-0.3-0.7C32.3,19.3,31.9,19.4,31.8,19.7z"/>
			<path class="st0" d="M31.3,29.8c0.2-0.1,0.9-0.9,1-1.1c0-0.1,0-0.2-0.1-0.3c-0.5-0.8-0.4-0.8-1,0c-0.2,0.3-0.5,0.5-0.5,0.9     C30.7,29.5,31,29.9,31.3,29.8z"/>
			<path class="st0" d="M34.3,11.4c0.2,0,0.2-0.2,0.3-0.3c0.2-0.4,0.2-0.8,0.2-1.2s-0.1-0.7-0.4-0.7c-0.3-0.1-0.4,0.2-0.5,0.4     c-0.2,0.5-0.2,0.9-0.1,1.4C33.9,11.2,34.1,11.4,34.3,11.4z"/>
			<path class="st0" d="M30.5,32.9c-0.4,0-1.4,0.7-1.6,1.1c-0.1,0.3-0.1,0.6,0.2,0.9c0.3,0.3,0.6,0.4,0.9,0.2     c0.3-0.1,0.7-0.3,0.9-0.5c0.3-0.3,0.8-0.5,0.6-1.1C31.3,33,30.9,32.9,30.5,32.9z"/>
			<path class="st0" d="M35,27.7c-0.3,0.2-0.6,0.5-0.8,0.8s0.1,0.8,0.5,0.8h0.1c0.5-0.1,0.9-1.2,0.5-1.6     C35.3,27.6,35.1,27.6,35,27.7z"/>
			<path class="st0" d="M36.7,18.5c-0.4,0.1-0.9,0.8-0.8,1.2c0,0.3,0.2,0.5,0.5,0.5c0.4,0,0.5-0.2,0.5-0.5c0.1-0.3,0.1-0.6,0.2-1     C37.1,18.6,37,18.5,36.7,18.5z"/>
			<path class="st0" d="M33.9,26.5c-0.3,0.1-0.8,0.7-0.8,1c0,0.4,0.3,0.7,0.6,0.5s0.6-0.5,0.7-1C34.5,26.7,34.2,26.4,33.9,26.5z"/>
			<path class="st0" d="M30.4,24.6c-0.3,0.4-0.2,0.6,0.2,0.8c0.4,0.3,0.6,0.2,0.9-0.1c0.3-0.4,0.1-0.8,0.1-1.2     c0.1-0.2,0.1-0.4-0.2-0.5c-0.3-0.1-0.4,0.1-0.5,0.3C30.7,24.1,30.6,24.4,30.4,24.6z"/>
			<path class="st0" d="M34.4,15.7c0,0.1,0,0.3,0,0.5s0,0.3,0.1,0.5c0,0.2,0.2,0.2,0.4,0.2s0.2-0.1,0.2-0.3c0.1-0.3,0.1-0.6,0.2-0.9     c0-0.2,0-0.5-0.4-0.5C34.5,15.2,34.2,15.2,34.4,15.7z"/>
			<path class="st0" d="M26.6,29.8c-0.4,0-1.5,0.9-1.5,1.2c0.2,0.7,0.8,0.5,1.3,0.4c0.1,0,0.3,0,0.4-0.1c0.4-0.2,0.7-0.4,0.6-0.9     C27.4,30,27,29.9,26.6,29.8z"/>
			<path class="st0" d="M34.2,8.3c0,0.4,0.3,0.4,0.5,0.5s0.3-0.1,0.2-0.3c-0.1-0.3-0.2-0.6-0.2-0.8c-0.1-0.1-0.1-0.2-0.1-0.3     c-0.1-0.2-0.3-0.2-0.5-0.2S34,7.4,34,7.6C34,7.8,34.2,8,34.2,8.3z"/>
			<path class="st0" d="M32.3,14.6c0.4,0.1,0.2-0.3,0.3-0.5c0,0,0-0.1,0-0.2c0-0.2,0.2-0.5,0-0.7c-0.3-0.2-0.5,0.1-0.7,0.3     c-0.2,0.1-0.1,0.3-0.1,0.4C31.7,14.4,32,14.5,32.3,14.6z"/>
			<path class="st0" d="M35.7,21.3c0.1-0.2,0.1-0.4-0.2-0.5c-0.2-0.1-0.4,0-0.5,0.2s-0.2,0.4-0.2,0.7c0,0.2,0,0.3,0.3,0.4     c0.2,0.1,0.3-0.1,0.4-0.3C35.6,21.7,35.6,21.5,35.7,21.3z"/>
			<path class="st0" d="M28.5,35.3c-0.3-0.1-0.6-0.1-0.9-0.1c-0.2,0-0.4,0-0.5,0c-0.2,0-0.4-0.1-0.4-0.3v-0.1h0.1     c0.6,0.1,0.9-0.4,1.3-0.7c0.3-0.2,0.7-0.5,0.5-0.8s-0.5-0.5-1.1-0.4c-0.5,0.1-0.8,0.5-1.1,0.7C26.2,33.7,26,33.8,26,34     c-0.2,0-0.3,0-0.5,0c-0.1,0-0.2,0-0.3,0.1c0-0.1,0.1-0.2,0.1-0.3c0.1-0.1,0.3-0.2,0.4-0.3c0.2-0.2,0.5-0.4,0.3-0.8     c-0.2-0.4-0.7-0.4-1.2-0.4c-0.2,0-0.5,0.1-0.6,0.1c-0.2,0-0.6,0-0.7-0.2c0.1,0,0.3,0,0.4-0.1c0.2-0.1,0.4-0.2,0.6-0.2     c0.2-0.1,0.3-0.2,0.2-0.4c-0.3-0.6-1.1-0.7-1.7-0.1c-0.1,0.1-0.1,0.2-0.2,0.3l-0.1-0.1c-0.3-0.3-0.7-0.3-0.9-0.5     c0.3-0.2,0.6-0.4,0.5-0.8l0,0c0.3,0.2,0.7,0.3,0.9,0.2c0.3-0.2,0.7-0.3,1-0.5c0.2-0.1,0.3-0.2,0.2-0.4c0.1-0.4-0.2-0.5-0.5-0.6     c-0.5-0.2-1.8,0.4-2.1,0.9c0,0,0,0,0,0.1c-0.1-0.1-0.2-0.1-0.3-0.2c-0.1-0.1-0.2-0.4-0.2-0.6c0.3,0.1,0.9-0.1,0.9-0.4     c0.1-0.3-0.1-0.6-0.4-0.7c-0.2-0.1-0.7,0.2-0.8,0.5c0,0.1,0,0.1,0,0.2l0,0c-0.1,0-0.1,0-0.2,0s-0.1-0.1-0.1-0.1s0,0,0-0.1     s0-0.2-0.1-0.2s-0.1,0-0.2,0c-1.1,0-2.3,0.1-3.4-0.2c-1-0.3-2.1-0.6-3.1-1c-0.9-0.4-1.9-0.6-2.7-1.3c-0.3-0.2-0.5-0.6-0.8-0.8     c-0.3-0.2-0.6-0.5-0.8-0.7S9.3,24,9.1,23.9c-0.5-0.3-0.8-0.8-1.2-1.3c-0.6-0.8-1.2-1.6-1.7-2.4c-0.6-1-0.9-2-1-3.1     c-0.1-0.9,0.1-1.9,0.1-2.7c0-0.5,0-0.9,0.1-1.3c0.2-0.9,0.6-1.8,1.1-2.6C7.3,9.1,8,7.8,9.3,7c1.4-1,2.9-1.5,4.7-1.2     c0.9,0.1,1.9,0.3,2.7,0.7c0.8,0.4,1.5,0.9,2,1.6c0.4,0.6,0.6,1.2,0.9,1.8s0.3,1.1,0.3,1.7c-0.1,1.2-0.3,2.3-0.9,3.3     c-0.6,1.1-1.6,1.8-2.8,2.2c-0.4,0.2-0.9,0-1.3,0.2c-0.3,0.1-0.6,0.1-0.8,0s-0.3-0.1-0.5-0.1c-0.7-0.1-1.3-0.4-2-0.6     c-0.3-0.1-0.6-0.2-0.9-0.4c-0.1-0.1-0.3-0.1-0.4,0c-0.1,0.1-0.1,0.2,0,0.4c0.5,0.9,0.9,2,1.8,2.6c0.5,0.3,0.9,0.8,1.4,1.1     c0.1,0.1,0.2,0,0.3,0.1c0.2,0.2,0.5,0.4,0.8,0.5c0.2,0.1,0.5,0.1,0.6,0.2c0.5,0.2,1.1,0.2,1.6,0.4c0.2,0.1,0.5,0.1,0.8,0.1     c0.5,0,1,0,1.4,0c0.5,0.1,1-0.1,1.4-0.3c0.7-0.3,1.4-0.4,2.1-0.8c0.4-0.2,0.8-0.3,1.1-0.6c0.4-0.3,0.9-0.5,1.3-0.8     c0.4-0.4,0.9-0.7,1.3-1.2c0.6-0.6,0.9-1.5,1.4-2.2c0.2-0.3,0.3-0.7,0.5-1.1c0.5-1.2,1-2.4,0.9-3.8c-0.1-0.8-0.1-1.5-0.2-2.3     c0-0.5-0.2-0.9-0.3-1.4c-0.1-0.5-0.4-1-0.7-1.4c-0.3-0.6-0.7-1.2-1.2-1.7s-1-1.1-1.6-1.5C24.2,2,23.4,1.4,22.5,1     c-0.4-0.2-0.8-0.4-1.2-0.4c-0.6,0-1.1-0.2-1.6-0.3c-0.8-0.2-1.7-0.1-2.5-0.1c-0.4,0-0.9,0.1-1.3,0.3c-0.7,0.2-1.4,0.4-2.1,0.5     c-0.9,0.1-1.6,0.5-2.4,0.8c-0.3,0.1-0.6,0.2-0.9,0.3c-0.4,0.1-0.8,0.2-1.1,0.5c-0.7,0.8-1.6,1.2-2.3,2C6.7,5,6.2,5.4,5.8,5.8     c-0.5,0.5-1.1,1-1.5,1.7C3.7,8.3,3.1,9,2.7,9.8c-0.2,0.5-0.6,1-0.8,1.5c-0.2,0.5-0.4,0.9-0.6,1.4c-0.3,0.9-0.6,1.7-0.9,2.6     C0.1,16.2-0.1,17.1,0,18c0,0.3,0,0.6,0.1,0.9C0.2,19.4,0,20,0.2,20.5c0.1,0.2,0.1,0.3,0.2,0.5c0.2,0.7,0.2,1.4,0.5,2.1     c0.2,0.6,0.5,1.3,0.6,2c0,0.2,0.1,0.4,0.2,0.6c0.5,0.8,0.8,1.7,1.3,2.5c0.1,0.1,0.1,0.3,0.3,0.4C3.7,29,4,29.4,4.2,29.9     C4.3,30,4.4,30,4.4,30.1c0.1,0.4,0.4,0.7,0.6,1.1c0.4,0.7,1,1.3,1.6,1.9c0.2,0.3,0.5,0.6,0.7,0.8c0.4,0.4,1,0.7,1.4,1.1     c0.5,0.5,1.2,0.8,1.8,1.1c0.7,0.4,1.5,0.5,2.2,0.9c0.1,0.1,0.3,0.2,0.5,0.2c0.6,0.1,1.1,0.4,1.7,0.6c0.7,0.3,1.4,0.5,2.2,0.7     c0.4,0.1,0.8,0.1,1.2,0.1c1.1,0.2,2.1,0.1,3.2,0c0.2,0,0.4,0,0.6-0.1c0.6-0.1,1.1-0.2,1.7-0.4c1.2-0.3,2.2-0.7,3.3-1.2     c0.3-0.2,2-0.9,1.6-1.5C28.7,35.3,28.6,35.3,28.5,35.3z M7.1,30c0,0.1-0.1,0.1-0.2,0.1H6.8l0,0l0,0H6.7c-0.4,0-0.6-0.1-0.7-0.5     c0-0.1-0.1-0.3-0.3-0.4c-0.1-0.2-0.2-0.3,0-0.4c0.1-0.1,0.3-0.2,0.5-0.1c0.5,0.2,0.7,0.7,0.9,1.1C7.1,29.9,7.1,30,7.1,30z      M8.8,33.1c-0.1,0.1-0.2,0.1-0.4,0.1l0,0c-0.2,0-0.4-0.1-0.5-0.2c-0.2-0.2-0.3-0.4-0.3-0.7s0.3-0.6,0.6-0.6l0,0     c0.3,0,0.7,0.5,0.7,0.9C9,32.9,8.9,33,8.8,33.1z M21.8,32.6c0.1,0.1,0.1,0.3,0.1,0.4c0,0.4-0.4,0.4-0.6,0.4c-0.1,0-0.1,0-0.1,0     h-0.1c-0.1,0-0.2,0-0.3-0.1c-0.1-0.1-0.1-0.2-0.1-0.4c0-0.4,0.2-0.5,0.6-0.5l0,0C21.5,32.4,21.7,32.4,21.8,32.6z M21.1,30.8     c0.1,0,0.2,0.1,0.3,0.3c0,0.2,0,0.3-0.2,0.3c-0.4,0.2-0.9,0.3-1.3,0.4l0,0c-0.3,0-0.4-0.3-0.5-0.5c-0.1-0.3,0.2-0.4,0.3-0.4     c0.2-0.1,0.5-0.1,0.7-0.1C20.6,30.7,20.8,30.7,21.1,30.8z M17.7,29.9c0.4,0,0.8,0.3,0.8,0.6c0,0.2-0.5,0.7-0.7,0.7l0,0     c-0.3,0-0.5-0.1-0.6-0.2s-0.1-0.2-0.1-0.4C17,30.1,17.2,29.8,17.7,29.9z M15.3,28.5c0.1-0.1,0.1-0.1,0.2-0.1c0.1,0,0.2,0,0.2,0     c0.2,0,0.5,0.1,0.7,0.2l0,0c0.1,0.1,0.3,0.1,0.3,0.3c0,0.2-0.1,0.3-0.3,0.3c0,0-0.1,0-0.1,0.1c-0.1,0.1-0.2,0.1-0.3,0.1l0,0l0,0     c-0.1,0-0.1,0-0.2,0c-0.1,0-0.2,0-0.3-0.1c-0.2-0.1-0.3-0.2-0.3-0.3C15.2,28.8,15.2,28.6,15.3,28.5z M14.7,30.3     c0.1-0.1,0.3,0,0.6,0.1c0,0,0.1,0,0.1,0.1l0.1,0.1c0.2,0.1,0.6,0.2,0.5,0.6c-0.1,0.3-0.4,0.4-0.7,0.5c0,0,0,0-0.1,0     s-0.2-0.1-0.3-0.1c-0.2-0.2-0.5-0.5-0.5-0.7C14.6,30.5,14.6,30.4,14.7,30.3z M11,27.6c0.2-0.2,0.4-0.1,0.5,0c0,0,0,0,0.1,0     c0,0,0.1,0,0.1,0.1c0.1,0.1,0.3,0.2,0.3,0.3l0,0l0,0c-0.1,0.1-0.2,0.1-0.3,0.2c0,0,0,0-0.1,0s-0.1,0-0.2,0c-0.1,0-0.1,0-0.2,0     c-0.1,0-0.1-0.1-0.2-0.2c0,0,0-0.1-0.1-0.1C10.9,27.9,10.8,27.7,11,27.6z M10,30.2L10,30.2c-0.7,0-0.9-0.2-0.9-0.7     c0-0.1,0.1-0.3,0.2-0.4S9.5,29,9.7,29c0.3,0,0.5,0.1,0.6,0.3c0.1,0.1,0.2,0.3,0.2,0.5S10.3,30.2,10,30.2z M11.7,35.2     c-0.1,0.1-0.3,0.2-0.5,0.2c0,0,0,0-0.1,0c-0.2,0-0.5-0.1-0.6-0.3c0-0.1,0-0.2,0.1-0.3c0.1-0.2,0.4-0.3,0.6-0.3l0,0l0,0     c0.5,0.1,0.6,0.3,0.6,0.4C11.9,35,11.8,35.1,11.7,35.2z M12.5,32.8c-0.1,0.1-0.3,0.1-0.4,0.1H12l0,0l0,0c-0.3,0-0.5-0.1-0.7-0.2     c-0.2-0.1-0.3-0.1-0.5-0.2c0,0-0.1,0-0.1-0.1s0-0.1,0-0.2c0.1-0.1,0.2-0.3,0.4-0.3l0,0c0.6,0,1.1,0.2,1.5,0.4     c0.1,0.1,0.1,0.1,0.1,0.2C12.6,32.7,12.6,32.8,12.5,32.8z M13,30.6h-0.1l0,0l0,0c-0.1,0-0.1,0-0.2,0c-0.2,0-0.5-0.1-0.5-0.4     c0-0.1,0-0.3,0.1-0.4s0.2-0.2,0.4-0.2l0,0c0.4,0,0.6,0.2,0.6,0.5C13.4,30.5,13.2,30.6,13,30.6z M13.7,36.3h-0.1     c-0.2,0-0.4-0.1-0.4-0.4c0-0.3,0.1-0.6,0.3-0.7c0.1-0.1,0.2-0.2,0.4-0.2l0,0c0.2,0,0.5,0.2,0.6,0.4c0.1,0.1,0.2,0.2,0.2,0.4     C14.6,36.1,14.2,36.3,13.7,36.3z M15,33.9c-0.3,0-0.6-0.1-0.8-0.3s-0.3-0.4-0.2-0.7c0.1-0.2,0.2-0.2,0.4-0.2c0.1,0,0.1,0,0.2,0     l0,0l0,0c0.6,0,1,0.1,1.3,0.4c0.1,0.1,0.1,0.3,0,0.4C15.8,33.7,15.5,33.8,15,33.9C15,33.9,15,33.9,15,33.9z M17.5,37.3     c-0.1,0.3-0.3,0.5-0.6,0.5h-0.1l0,0c-0.3,0-0.6-0.1-0.9-0.2c-0.1-0.1-0.3-0.3-0.3-0.5s0-0.6,0.1-0.7c0.1-0.1,0.1,0,0.2,0l0,0     c0.4,0.1,0.8,0.2,1.2,0.4C17.3,36.8,17.7,36.9,17.5,37.3z M18.7,34.8c0,0.3-0.5,0.6-0.8,0.6l0,0c-0.4,0-0.6-0.4-0.6-0.8     c0-0.2,0-0.3,0.1-0.3c0.1-0.1,0.2-0.1,0.4,0c0.2,0.1,0.3,0.1,0.5,0.1c0.1,0,0.2,0,0.3,0.1C18.6,34.5,18.7,34.6,18.7,34.8z      M19.1,33c-0.1,0.1-0.2,0.2-0.3,0.2c-0.2,0-0.3,0-0.4,0.1c0,0,0,0-0.1,0.1s-0.2,0.1-0.3,0.1l0,0c-0.1,0-0.2-0.1-0.2-0.2     c0-0.1-0.1-0.1-0.2-0.2c-0.2-0.2-0.4-0.4-0.1-0.7c0.1-0.2,0.3-0.2,0.4-0.2s0.1,0,0.1,0c0.3-0.1,0.5,0.1,0.7,0.3     c0.1,0.1,0.1,0.1,0.2,0.2C19.2,32.8,19.2,32.9,19.1,33z M19.1,29.8c-0.1,0-0.3-0.1-0.3-0.4c0-0.2,0.2-0.4,0.3-0.5     c0.1-0.1,0.2-0.1,0.2-0.1c0.1,0,0.2,0,0.3,0c0.1,0,0.1,0,0.2,0c0.3,0,0.4,0.1,0.4,0.4c0,0.1,0,0.3-0.1,0.4s-0.2,0.1-0.3,0.1     c-0.1,0-0.2,0-0.3,0c-0.1,0-0.2,0-0.3,0C19.2,29.8,19.2,29.8,19.1,29.8z M20.5,37.5c0,0.1-0.2,0.2-0.3,0.2c-0.1,0-0.2,0-0.3,0.1     c-0.1,0-0.2,0-0.3,0.1l0,0l0,0c-0.1,0-0.2-0.1-0.3-0.2c-0.1-0.1-0.1-0.2,0-0.3c0.1-0.2,0.3-0.4,0.6-0.4c0.2,0,0.4,0.1,0.5,0.3     C20.6,37.3,20.6,37.4,20.5,37.5z M21.7,35.8C21.7,35.8,21.6,35.8,21.7,35.8L21.7,35.8c-0.1,0-0.2,0-0.3,0h-0.1h-0.1     c-0.2,0-0.5-0.1-0.7-0.3s-0.3-0.4-0.3-0.6c0-0.1,0.1-0.2,0.2-0.3c0.4-0.2,1.5-0.2,1.8,0.1c0.2,0.1,0.3,0.3,0.3,0.6     C22.4,35.6,22.1,35.8,21.7,35.8z M24.6,37c0,0.1-0.1,0.2-0.2,0.3c-0.3,0.2-0.9,0.5-1.2,0.5l0,0h-0.1c-0.3,0-0.6-0.1-0.7-0.4     c-0.1-0.2,0.1-0.4,0.3-0.6l0.1-0.1c0.3-0.3,0.7-0.5,1.1-0.5c0.3,0,0.5,0.1,0.7,0.3C24.6,36.7,24.6,36.9,24.6,37z M23.8,34.2     L23.8,34.2c-0.2,0-0.3-0.1-0.4-0.2c-0.1-0.2-0.2-0.4-0.2-0.5c0-0.3,0.3-0.4,0.4-0.4l0,0l0,0c0.3,0,0.8,0.3,1,0.5     c0.1,0.1,0.1,0.2,0.1,0.2C24.6,33.9,24.2,34.2,23.8,34.2z M25.4,35.4c-0.1,0-0.1,0-0.2,0h-0.1c-0.1,0-0.2-0.1-0.2-0.3     c0-0.1,0-0.3,0-0.4c0.1-0.1,0.2-0.2,0.4-0.3c0.2-0.1,0.4-0.1,0.5,0c0.1,0,0.1,0.1,0.1,0.2C26.1,35,25.8,35.3,25.4,35.4z      M27.4,36.2c-0.2,0.3-0.5,0.4-0.7,0.5c0,0-0.1,0-0.1,0.1l0,0h-0.1c-0.2,0-0.5-0.1-0.6-0.3s0-0.4,0.3-0.6c0.3-0.3,0.7-0.3,1.1-0.2     c0.1,0,0.2,0.1,0.2,0.2C27.6,36,27.5,36.1,27.4,36.2z"/>
			<path class="st0" d="M34.3,17.7c-0.1,0-0.2,0.1-0.3,0.2c-0.1,0.4-0.4,0.7-0.3,1.1c0,0.1,0,0.3-0.1,0.4c-0.1,0.2,0.2,1,0.4,1.1     c0.3,0.1,0.6-0.1,0.7-0.5c0.1-0.5,0.1-1,0.2-1.4c0.1-0.2,0.2-0.4,0-0.6C34.9,17.8,34.6,17.7,34.3,17.7z"/>
			<path class="st0" d="M36.4,21.6c-0.4,0-0.3,0.2-0.3,0.5c0,0.2,0,0.4-0.1,0.5c-0.2,0.4,0,0.8,0,1.1c0.1,0.3,0.3,0.4,0.5,0.4     c0.3,0,0.4-0.2,0.4-0.4c0.1-0.5,0.2-1,0.1-1.5C37,21.6,36.7,21.6,36.4,21.6z"/>
			<path class="st0" d="M32.3,26.7c0.2-0.3,0.4-0.5,0.5-0.8c0.1-0.2,0.1-0.3-0.1-0.5c-0.3-0.3-0.8-0.2-0.9,0.2     c-0.1,0.2-0.2,0.4-0.2,0.7c-0.1,0.3,0.1,0.4,0.3,0.5C32.1,26.8,32.2,26.8,32.3,26.7z"/>
			<path class="st0" d="M33,10.1c0.2,0,0.2-0.3,0.3-0.5c0-0.3,0.1-0.7,0.1-1c0-0.2,0-0.5-0.2-0.5S32.7,8,32.7,8.2     c0,0.4-0.3,0.8-0.2,1.3C32.4,9.9,32.7,10.1,33,10.1z"/>
			<path class="st0" d="M25.7,26.2c-0.1-0.2-0.2-0.4-0.4-0.4c-0.2,0-0.8,0.4-0.8,0.6s0.3,0.5,0.5,0.5C25.3,27,25.7,26.5,25.7,26.2z"/>
			<path class="st0" d="M35.9,13.4c0,0.3-0.3,0.6-0.1,1c0,0.4,0.3,0.7,0.6,0.8s0.5,0,0.4-0.3c-0.1-0.5-0.2-1-0.3-1.4     c0-0.2-0.1-0.3-0.3-0.3C36.1,13.1,35.9,13.2,35.9,13.4z"/>
			<path class="st0" d="M30.8,19.3c-0.1-0.4,0.8-0.9,0.2-1.3c-0.4-0.3-0.8,0.2-1.1,0.5c-0.3,0.4-0.2,0.8,0.1,1.2     C30.3,19.8,30.6,19.7,30.8,19.3z"/>
			<path class="st0" d="M33.4,28.9L33.4,28.9c-0.4,0.1-0.6,0.4-0.7,0.7c-0.1,0.1,0,0.2,0.1,0.4c0.1,0.1,0.2,0.1,0.4,0     s0.2-0.3,0.3-0.5c0-0.1,0.1-0.2,0.1-0.4C33.6,29,33.6,28.9,33.4,28.9C33.5,28.9,33.5,28.9,33.4,28.9z"/>
		</g>
	</g>
</g>
</svg>