<svg xmlns="http://www.w3.org/2000/svg" xmlns:xlink="http://www.w3.org/1999/xlink" viewBox="0 0 1440 1440" width="1440" height="1440" preserveAspectRatio="xMidYMin slice" style="width: 100%; height: 100%; transform: translate3d(0px, 0px, 0px); content-visibility: visible;"><defs><clipPath id="__lottie_element_2"><rect width="1440" height="1440" x="0" y="0"></rect></clipPath></defs><g clip-path="url(#__lottie_element_2)"><g transform="matrix(1,0,0,1,0,0)" opacity="1" style="display: block;"><g opacity="1" transform="matrix(1,0,0,1,211.91299438476562,315.5)"><path fill="rgb(255,209,0)" fill-opacity="1" d=" M211.91299438476562,-315.5 C211.91299438476562,-315.5 -105.50599670410156,-315.5 -105.50599670410156,-315.5 C-105.50599670410156,-315.5 -105.50599670410156,-138.82000732421875 -105.50599670410156,-138.82000732421875 C-105.50599670410156,-138.82000732421875 0,-103.66400146484375 0,-103.66400146484375 C0,-103.66400146484375 -211.91299438476562,0.9010000228881836 -211.91299438476562,0.9010000228881836 C-211.91299438476562,0.9010000228881836 -211.91299438476562,315.5 -211.91299438476562,315.5 C-211.91299438476562,315.5 104.60399627685547,315.5 104.60399627685547,315.5 C104.60399627685547,315.5 104.60399627685547,140.6230010986328 104.60399627685547,140.6230010986328 C104.60399627685547,140.6230010986328 0,105.46700286865234 0,105.46700286865234 C0,105.46700286865234 211.91299438476562,0 211.91299438476562,0 C211.91299438476562,0 211.91299438476562,-315.5 211.91299438476562,-315.5z"></path></g></g><g transform="matrix(1,0,0,1,0,0)" opacity="1" style="display: block;"><g opacity="1" transform="matrix(1,0,0,1,721.3209838867188,315.5)"><path fill="rgb(255,209,0)" fill-opacity="1" d=" M-210.55999755859375,315.5 C-210.55999755859375,315.5 -105.05500030517578,315.5 -105.05500030517578,315.5 C-105.05500030517578,315.5 -105.05500030517578,314.5989990234375 -105.05500030517578,314.5989990234375 C-105.05500030517578,256.9079895019531 -58.16299819946289,210.0330047607422 -0.45100000500679016,210.0330047607422 C58.16299819946289,210.0330047607422 105.05500030517578,256.9079895019531 105.05500030517578,314.5989990234375 C105.05500030517578,314.5989990234375 105.05500030517578,315.5 105.05500030517578,315.5 C105.05500030517578,315.5 210.55999755859375,315.5 210.55999755859375,315.5 C210.55999755859375,315.5 210.55999755859375,105.46700286865234 210.55999755859375,105.46700286865234 C210.55999755859375,105.46700286865234 -0.45100000500679016,0 -0.45100000500679016,0 C-0.45100000500679016,0 -210.55999755859375,105.46700286865234 -210.55999755859375,105.46700286865234 C-210.55999755859375,105.46700286865234 -210.55999755859375,315.5 -210.55999755859375,315.5z M210.55999755859375,-315.5 C210.55999755859375,-315.5 105.05500030517578,-315.5 105.05500030517578,-315.5 C105.05500030517578,-315.5 105.05500030517578,-314.5989990234375 105.05500030517578,-314.5989990234375 C105.05500030517578,-256.9079895019531 58.16299819946289,-210.0330047607422 -0.45100000500679016,-210.0330047607422 C-58.16299819946289,-210.0330047607422 -105.05500030517578,-256.9079895019531 -105.05500030517578,-314.5989990234375 C-105.05500030517578,-314.5989990234375 -105.05500030517578,-315.5 -105.05500030517578,-315.5 C-105.05500030517578,-315.5 -210.55999755859375,-315.5 -210.55999755859375,-315.5 C-210.55999755859375,-315.5 -210.55999755859375,-105.46700286865234 -210.55999755859375,-105.46700286865234 C-210.55999755859375,-105.46700286865234 -0.45100000500679016,0 -0.45100000500679016,0 C-0.45100000500679016,0 210.55999755859375,-105.46700286865234 210.55999755859375,-105.46700286865234 C210.55999755859375,-105.46700286865234 210.55999755859375,-315.5 210.55999755859375,-315.5z"></path></g></g><g transform="matrix(1,0,0,1.2000000476837158,0,-126.20001220703125)" opacity="1" style="display: block;"><g opacity="1" transform="matrix(1,0,0,1,1229.43994140625,315.5)"><path fill="rgb(255,209,0)" fill-opacity="1" d=" M210.55999755859375,-315.5 C210.55999755859375,-315.5 105.05500030517578,-315.5 105.05500030517578,-315.5 C105.05500030517578,-315.5 0.45100000500679016,0 0.45100000500679016,0 C0.45100000500679016,0 -105.05500030517578,-315.5 -105.05500030517578,-315.5 C-105.05500030517578,-315.5 -210.55999755859375,-315.5 -210.55999755859375,-315.5 C-210.55999755859375,-315.5 -210.55999755859375,315.5 -210.55999755859375,315.5 C-210.55999755859375,315.5 210.55999755859375,315.5 210.55999755859375,315.5 C210.55999755859375,315.5 210.55999755859375,-315.5 210.55999755859375,-315.5z"></path></g></g><g transform="matrix(1,0,0,0,720,620)" opacity="1" style="display: block;"><g opacity="1" transform="matrix(1,0,0,1,0,0)"><path fill="rgb(255,209,0)" fill-opacity="1" d=" M720,-720 C720,-720 720,720 720,720 C720,720 -720,720 -720,720 C-720,720 -720,-720 -720,-720 C-720,-720 720,-720 720,-720z"></path></g></g></g></svg>
