<svg width="1774" height="664" viewBox="0 0 1774 664" xmlns="http://www.w3.org/2000/svg" class="Logo_logo___yD0t" style="fill:#b8b8b8"><path fill-rule="evenodd" clip-rule="evenodd" d="M1145.58 415.43C1166.39 415.895 1184.66 417.756 1200.79 421.014C1216.93 424.271 1232.22 429.855 1247.09 437.3C1261.95 445.211 1273.85 456.379 1281.92 471.734C1289.99 486.625 1293.81 505.238 1293.81 526.643C1293.81 618.313 1211.84 663.915 1048.32 663.915C976.969 663.915 924.303 656.47 890.751 641.114C857.198 626.224 840.21 606.68 840.21 583.413C840.21 572.246 843.607 562.008 850.827 551.771C858.048 541.999 867.816 534.089 880.133 528.97C860.596 514.545 850.827 494.536 850.827 469.408C850.827 432.647 867.391 401.47 900.519 376.342C862.72 357.729 843.607 325.156 843.607 278.623C843.607 186.022 916.234 139.024 1061.49 136.697C1072.11 86.9072 1089.09 51.5422 1112.88 30.6024C1137.51 10.5933 1162.57 0.356018 1188.9 0.356018C1212.26 0.356018 1234.35 11.9892 1256.01 35.721C1276.39 58.0568 1286.59 77.1353 1286.59 92.9565C1286.59 122.738 1268.75 137.628 1233.07 137.628C1227.98 137.628 1217.78 136.697 1202.92 135.301C1187.63 133.905 1176.16 133.905 1168.09 134.836C1160.02 135.767 1154.92 138.559 1152.8 143.212C1194.85 150.657 1225.43 164.617 1244.54 184.161C1263.65 204.17 1273.42 231.625 1273.42 266.524C1273.42 287.929 1269.6 306.543 1262.38 321.898C1254.73 337.72 1242.84 351.214 1225.43 363.313C1208.01 374.946 1184.23 384.253 1154.08 389.836C1123.5 395.886 1086.55 398.678 1042.8 398.678C1024.54 398.678 1007.12 398.212 990.559 396.816C990.135 398.212 990.135 399.608 990.135 401.004C990.135 406.588 993.108 410.311 999.479 411.242C1005.42 412.638 1016.89 413.568 1033.46 413.568H1044.92C1045.77 413.568 1049.6 413.568 1057.24 414.034C1064.46 414.499 1076.35 414.499 1093.34 414.499C1109.9 414.964 1127.32 415.43 1145.58 415.43ZM1075.08 590.393C1107.78 590.393 1123.92 586.671 1123.92 579.225C1123.92 574.572 1110.75 570.85 1084.42 568.058C1061.06 565.266 1040.25 562.939 1022.41 561.543C1018.6 561.155 1014.96 560.786 1011.47 560.434L1011.47 560.434C998.252 559.099 987.317 557.994 978.243 556.89C975.694 559.682 974.42 562.474 974.42 565.266C974.42 582.017 1007.97 590.393 1075.08 590.393ZM1054.69 214.407C1048.75 214.407 1045.77 221.387 1045.77 235.347C1045.77 246.05 1046.62 259.544 1049.17 275.831C1051.29 293.513 1053.42 306.077 1055.97 313.523C1058.09 320.968 1061.91 324.69 1066.58 324.69C1072.11 324.69 1074.65 317.71 1074.65 303.751C1074.65 292.117 1073.38 278.158 1071.26 261.871C1069.13 244.654 1067.01 232.555 1064.88 225.11C1062.76 218.13 1059.36 214.407 1054.69 214.407ZM820.125 349.818C813.329 342.373 804.835 338.185 794.217 338.185C786.997 338.185 776.804 341.907 764.911 349.818C718.617 376.342 682.516 389.371 656.184 389.371C643.442 389.371 634.948 386.579 631.126 380.995L781.9 323.76C793.792 319.106 802.287 313.522 808.233 307.008C813.754 300.493 816.727 291.652 816.727 280.484C816.727 248.376 798.889 216.734 763.213 185.091C727.536 153.914 682.516 138.093 628.152 138.093C564.445 138.093 510.506 157.637 467.185 195.794C423.439 234.416 401.778 285.137 401.778 348.422C401.778 403.796 420.041 449.864 457.416 486.159C494.366 522.921 546.607 541.068 613.712 541.068C643.018 541.068 669.775 536.88 694.408 529.435C719.042 521.525 739.428 511.753 755.568 499.189C771.282 486.625 784.448 474.992 794.217 463.358C803.985 452.19 811.63 440.557 817.152 428.924C825.646 410.311 829.893 394.024 829.893 380.064C829.893 367.966 826.496 357.729 820.125 349.818ZM595.874 275.365C595.874 251.634 599.696 240 606.917 240C612.013 240 615.836 244.654 618.384 254.891C621.357 264.663 622.631 275.831 622.631 287.929C622.631 297.236 621.357 303.75 617.959 307.473C614.986 311.661 609.465 314.453 601.82 316.78C597.998 303.75 595.874 289.791 595.874 275.365ZM372.202 355.868C385.793 317.711 392.588 279.554 392.588 240.466C392.588 179.973 367.955 148.796 319.537 148.331C297.027 147.865 276.216 154.38 257.953 167.409C239.69 180.904 226.524 199.982 218.454 225.11H215.906V222.783C215.906 198.121 213.358 179.973 208.261 168.34C203.164 156.241 193.396 150.657 179.38 150.657C161.117 150.657 130.962 158.568 88.9153 174.389C51.5402 188.349 27.756 199.517 16.7134 208.358C5.67074 217.199 0.149414 228.367 0.149414 241.862C0.149414 249.307 2.273 259.544 6.94489 273.504C12.0415 287.464 14.1651 304.216 14.1651 324.225V419.152C14.1651 433.578 12.0415 447.072 6.94489 460.101C2.273 473.131 0.149414 482.902 0.149414 489.882C0.149414 500.585 2.69772 508.496 8.21904 514.545C13.7404 520.594 23.9336 523.386 39.2234 523.386C43.0459 523.386 51.9649 523.386 66.83 522.455C81.2704 521.99 97.4097 521.525 114.823 521.525C129.688 521.525 144.978 521.99 160.268 522.455C167.165 522.66 172.917 522.864 177.559 523.029H177.561L177.583 523.03L177.587 523.03C183.507 523.24 187.619 523.386 189.998 523.386C218.029 523.386 232.045 512.218 232.045 489.882C232.045 482.902 229.072 471.735 223.551 455.913C218.029 440.092 215.481 420.548 215.481 397.747V383.787C215.481 365.639 215.906 351.68 217.18 341.908C218.454 332.601 220.153 326.086 222.277 323.295C224.4 320.503 227.373 319.107 230.771 319.107C238.841 319.107 248.184 329.344 258.802 349.818C269.42 369.362 279.189 383.322 287.258 392.163C295.328 401.004 306.371 405.192 319.962 405.192C342.896 405.192 360.31 388.441 372.202 355.868ZM1757.72 412.172L1744.98 278.623C1739.88 228.367 1727.57 193.933 1707.18 174.855C1687.22 155.776 1663.01 146.469 1634.13 146.469C1591.23 146.469 1555.56 165.083 1527.1 202.774H1524.55C1523.7 167.409 1511.81 149.727 1488.45 149.727C1470.19 149.727 1440.03 157.637 1397.99 173.459C1361.04 187.418 1337.25 199.052 1326.21 207.893C1315.17 216.734 1309.64 227.902 1309.64 241.397C1309.64 248.842 1312.19 259.079 1316.86 273.039C1321.11 286.999 1323.66 304.216 1323.66 324.225V418.687C1323.66 433.112 1321.54 446.607 1316.86 459.636C1311.77 473.13 1309.64 482.902 1309.64 489.882C1309.64 500.585 1312.19 508.961 1317.71 514.545C1323.24 520.594 1333.43 523.386 1348.72 523.386C1352.54 523.386 1361.46 523.386 1376.33 522.455C1390.77 521.99 1406.9 521.525 1424.32 521.525C1439.18 521.525 1453.2 521.99 1467.21 522.455C1473.01 522.647 1477.93 522.84 1482.01 522.999C1487.8 523.226 1491.9 523.386 1494.4 523.386C1521.15 523.386 1534.74 512.218 1534.74 489.882C1534.74 481.041 1533.47 470.804 1530.07 458.24C1527.1 445.676 1525.4 432.647 1525.4 418.687V302.355C1525.4 286.533 1529.22 279.088 1536.87 279.088C1543.24 279.088 1547.06 288.395 1548.34 307.473L1553.43 385.183C1555.13 409.38 1555.98 425.201 1555.98 433.112C1555.98 440.092 1554.28 449.399 1551.31 460.566C1548.34 471.269 1547.06 481.041 1547.06 488.952C1547.06 512.218 1559.8 523.386 1585.29 523.386C1586.17 523.386 1588.36 523.226 1591.85 522.972C1596.76 522.614 1604.23 522.069 1614.17 521.525C1631.16 520.129 1648.14 519.663 1664.71 519.663C1682.97 519.663 1699.54 520.594 1713.55 521.525C1727.57 522.921 1735.64 523.386 1737.76 523.386C1749.23 523.386 1758.15 520.129 1764.52 513.614C1770.46 507.565 1773.86 499.189 1773.86 489.417C1773.86 480.11 1771.31 469.408 1767.07 457.775C1762.39 446.141 1759.42 430.785 1757.72 412.172Z"></path></svg>