<svg xmlns="http://www.w3.org/2000/svg" fill="none" viewBox="0 0 150 32" width="150" height="32"><path fill="currentColor" d="M.783.194 0 31.767h7.085l4.345-18.975h.274l-1.331 18.975h7.045L26.148.194h-6.225l-4.462 19.87h-.274L16.48.193H10.49l-4.736 19.87H5.48L7.046.193H.783ZM32.05 11.86l-2.113 14.113c-.157 1.011-.314 1.556-1.175 1.556-.587 0-.783-.273-.783-.856 0-.155.04-.389.079-.7L30.17 11.86c.157-.972.314-1.555 1.096-1.555.666 0 .9.272.9.933 0 .078-.078.272-.117.622Zm5.637.621c.235-1.477.352-2.527.352-3.266 0-2.994-1.996-3.344-6.028-3.344-6.028 0-6.772.972-7.633 6.61l-1.957 12.831c-.235 1.633-.313 2.8-.313 3.422 0 2.838 1.957 3.188 5.989 3.188 5.91 0 6.81-.894 7.672-6.61l1.918-12.83ZM52.07 12.987c.274-1.789.391-2.917.391-3.305 0-2.528-1.096-3.81-3.17-3.81-.94 0-2.075.466-3.366 1.36l.156-1.205h-5.715l-3.835 25.74h5.675l2.975-19.597c.157-1.01.43-1.438 1.135-1.438.548 0 .783.233.783.816 0 .078 0 .311-.04.622l-.665 4.394h5.128l.548-3.577ZM55.277.194 50.54 31.767h5.675L60.992.194h-5.715ZM70.261.194l-1.056 7.038c-1.057-.894-1.958-1.36-3.093-1.36-3.836 0-4.736 2.915-5.362 7.115l-1.8 11.82c-.236 1.477-.392 2.566-.392 3.266 0 2.45 1.33 3.81 3.64 3.81 1.174 0 2.231-.466 3.484-1.36l.463 1.244h5.095L75.976.194h-5.715Zm-1.8 12.015-1.996 13.337c-.157.972-.431 1.438-1.175 1.438-.548 0-.783-.233-.783-.816 0-.078 0-.273.04-.622l1.996-13.337c.156-1.01.47-1.439 1.174-1.439.509 0 .822.311.822.778 0 .117-.039.311-.078.661ZM98.113 6.532c.195-1.283.313-2.333.313-3.11C98.426.194 96.156 0 91.458 0c-3.483 0-5.636.039-6.967 1.439-1.057 1.127-1.33 2.76-1.683 5.093L79.99 25.39c-.235 1.478-.313 2.644-.313 3.46 0 2.8 2.426 3.15 6.967 3.15 3.444 0 5.558-.117 6.85-1.4 1.174-1.166 1.409-2.838 1.761-5.21l1.096-7.038h-6.654l-1.018 6.844c-.156 1.01-.352 1.594-1.252 1.594-.627 0-.861-.272-.861-.933 0-.156 0-.39.039-.661l2.779-18.47c.156-.971.313-1.555 1.174-1.555.705 0 .979.272.979.933 0 .04-.04.234-.079.623l-.626 4.199h6.615l.666-4.394ZM100.971.194l-4.736 31.573h5.676L106.686.194h-5.715ZM119.831 12.481c.235-1.516.352-2.605.352-3.266 0-2.994-1.996-3.344-6.028-3.344-6.067 0-6.772 1.011-7.633 6.61l-.352 2.294h5.715l.43-2.916c.157-1.01.314-1.555 1.214-1.555.626 0 .783.272.783.933 0 0-.039.194-.118.622l-.509 3.383-5.48 2.955c-2.152 1.166-2.896 2.138-3.248 4.588l-.392 2.527c-.195 1.322-.352 2.411-.352 3.266 0 2.294 1.057 3.344 3.366 3.344 1.331 0 2.505-.466 3.836-1.322l.463 1.167h5.056l2.897-19.286Zm-6.928 8.204-.822 5.288c-.157 1.05-.353 1.556-1.175 1.556-.587 0-.783-.273-.783-.856 0-.194.04-.428.079-.7l.391-2.605c.157-1.088.313-1.827 1.292-2.255l1.018-.428ZM120.038 22.513l-.43 2.8c-.235 1.593-.314 2.76-.314 3.42 0 2.84 1.957 3.19 5.989 3.19 5.872 0 6.811-.895 7.672-6.61l.313-2.334c.118-.7.235-1.4.235-2.06 0-1.284-.587-2.217-1.722-2.878l-2.192-1.244c-1.566-.894-2.584-1.089-2.584-2.41 0-.273.079-.545.118-.895l.235-1.633c.156-1.01.352-1.555 1.096-1.555.665 0 .9.272.9.933 0 .039-.039.233-.117.622l-.431 2.916h5.715l.352-2.294c.235-1.438.352-2.527.352-3.266 0-2.994-1.996-3.344-6.028-3.344-5.245 0-6.732.661-7.476 5.56l-.43 2.683c-.157 1.167-.274 1.983-.274 2.45 0 1.555.822 2.372 2.661 3.344l2.075 1.127c1.448.778 1.8 1.128 1.8 1.983 0 .04 0 .272-.078.739l-.352 2.216c-.157 1.011-.313 1.556-1.174 1.556-.588 0-.783-.273-.783-.856 0-.194.039-.428.078-.7l.509-3.46h-5.715ZM134.813 22.513l-.431 2.8c-.235 1.593-.313 2.76-.313 3.42 0 2.84 1.957 3.19 5.989 3.19 5.871 0 6.811-.895 7.672-6.61l.313-2.334c.117-.7.235-1.4.235-2.06 0-1.284-.587-2.217-1.723-2.878l-2.191-1.244c-1.566-.894-2.584-1.089-2.584-2.41 0-.273.078-.545.118-.895l.234-1.633c.157-1.01.353-1.555 1.096-1.555.666 0 .901.272.901.933 0 .039-.039.233-.118.622l-.43 2.916h5.714l.353-2.294c.235-1.438.352-2.527.352-3.266 0-2.994-1.996-3.344-6.028-3.344-5.245 0-6.732.661-7.476 5.56l-.431 2.683c-.156 1.167-.274 1.983-.274 2.45 0 1.555.822 2.372 2.662 3.344l2.075 1.127c1.448.778 1.8 1.128 1.8 1.983 0 .04 0 .272-.078.739l-.352 2.216c-.157 1.011-.314 1.556-1.175 1.556-.587 0-.783-.273-.783-.856 0-.194.04-.428.079-.7l.509-3.46h-5.715Z"></path></svg>